# xmcd
#
# Track frame offsets: 
#        183
#        17348
#        31573
#        48425
#        63833
#        78033
#        91793
#        104403
#        125583
#        141168
#        156063
#        170118
#        181583
#        199998
#        218460
#        236163
#        250833
#        267933
#
# Disc length: 3809 seconds
#
# Revision: 4
# Processed by: cddbd v1.5.2PL0 Copyright (c) Steve Scherf et al.
# Submitted via: ExactAudioCopy v0.99pb5
#
DISCID=e20edf12
DTITLE=Various Artist - Die deutschen Single-Hits der 70er Jahre - CD 2
DYEAR=1996
DGENRE=Schlager
TTITLE0=Hanna Aroni - Eviva España
TTITLE1=Chris Roberts - Hab' Sonne im Herzen
TTITLE2=Peter Rubin - Wir zwei fahren irgendwo hin
TTITLE3=Vicky Leandros - Die Bouzouki klang durch die Sommernacht
TTITLE4=Bat Illic - Michaela
TTITLE5=Katja Ebstein - Der Stern von Mykonos
TTITLE6=New Seekers - Oh, ich will betteln, ich will stehlen
TTITLE7=Christian Anders - Es fährt ein Zug nach Nirgendwo
TTITLE8=Juliane Werding - Am Tag als Conny Kramer starb
TTITLE9=Bernd Clüver - Der Junge mit der Mundharmonika
TTITLE10=Rex Gildo - Fiesta Mexicana
TTITLE11=Freddy Breck - Bianca
TTITLE12=Vicky Leandros - Ich hab' die Liebe geseh'n
TTITLE13=Heino - Blau blüht der Enzian
TTITLE14=Daliah Lavi - Wär' ich ein Buch
TTITLE15=Bata Illic - Baby, du bist nicht alleine
TTITLE16=Vicky Leandros - Lago Maggiore im Schnee
TTITLE17=Demis Roussos - Goodbye, My Love, Goodbye
EXTD=
EXTT0=
EXTT1=
EXTT2=
EXTT3=
EXTT4=
EXTT5=
EXTT6=
EXTT7=
EXTT8=
EXTT9=
EXTT10=
EXTT11=
EXTT12=
EXTT13=
EXTT14=
EXTT15=
EXTT16=
EXTT17=
PLAYORDER=
